Genre:Comedy | Sci-Fi
Language:English
IMDb:http://www.imdb.com/title/tt1231587/
Source:UNRATED.720p.Bluray.x264-CBGB 
Encoder: Tony2
.............................................
General
Complete name : Hot Tub Time Machine UNRATED.BRRip.MP4.AAC.FEEL-FREE
Format : MPEG-4
Format profile : Base Media
File size : 972 MiB
Duration : 1h 40mn
Overall bit rate : 1 351 Kbps
.............................................
Video
ID : 1
Format : MPEG-4 Visual
Format profile : Simple@L1
Format settings, BVOP : No
Format settings, QPel : No
Format settings, GMC : No warppoints
Format settings, Matrix : Default (H.263)
Codec ID : 20
Duration : 1h 40mn
Bit rate mode : Variable
Bit rate : 1 200 Kbps
Width : 704 pixels
Height : 304 pixels
Display aspect ratio : 2.35:1
Frame rate mode : Constant
Frame rate : 29.970 fps
Resolution : 24 bits
Colorimetry : 4:2:0
Scan type : Progressive
Bits/(Pixel*Frame) : 0.187
Stream size : 863 MiB (89%)
Writing library : Lavc51.40.4
............................................
Audio
ID : 2
Format : AAC
Format/Info : Advanced Audio Codec
Format version : Version 4
Format profile : LC
Format settings, SBR : No
Codec ID : 40
Duration : 1h 40mn
Bit rate mode : Variable
Bit rate : 144 Kbps
Channel(s) : 6 channels
Channel positions : Front: L C R, Rear: L R, LFE
Sampling rate : 48.0 KHz
Resolution : 16 bits
Stream size : 105 MiB (11%)
............................................
Plot: 
Four guy friends, all of them bored with their adult lives, travel back to their respective 80s heydays thanks to a time-bending hot tub
...................................................
Screens: 
http://postimg.com/image/17000/16412.jpg 
http://postimg.com/image/17000/16413.jpg
........................................................
........................................................